<svg id="Ebene_1" data-name="Ebene 1" xmlns="http://www.w3.org/2000/svg" xmlns:xlink="http://www.w3.org/1999/xlink" viewBox="0 0 340.16 117.31"><defs><style>.cls-1{fill:none;}.cls-2{clip-path:url(#clip-path);}.cls-3{fill:#1d1d1b;}.cls-4{fill:#e86922;}</style><clipPath id="clip-path"><rect class="cls-1" width="340.16" height="117.31"/></clipPath></defs><g class="cls-2"><path class="cls-3" d="M274.39,39.15a3.27,3.27,0,1,0,3.26,3.27,3.28,3.28,0,0,0-3.26-3.27"/><path class="cls-3" d="M254.88,39.15a3.27,3.27,0,1,0,3.26,3.27,3.27,3.27,0,0,0-3.26-3.27"/><path class="cls-3" d="M274.39,54.62a3.27,3.27,0,1,0,3.26,3.27,3.27,3.27,0,0,0-3.26-3.27"/><path class="cls-4" d="M254.88,54.62a3.27,3.27,0,1,0,3.26,3.27,3.26,3.26,0,0,0-3.26-3.27"/><path class="cls-3" d="M280.13,12.25H60.55c-32,0-48,17-48,37.9h0c0,16.84,10.41,31.08,31.1,36V79.76C27.94,75.51,18.72,65,18.72,50.15c0-19.55,16-31.69,41.83-31.69H280.13C305.94,18.46,322,30.6,322,50.15s-16,31.7-41.84,31.7H234.69l-3.84,3.84c-.81.8-1.66,1.6-2.56,2.37h51.84c32,0,48.05-17,48.05-37.91h0c0-20.93-16.08-37.9-48.05-37.9"/><path class="cls-3" d="M215.33,55.56a8.65,8.65,0,0,0-15.5,0,12.67,12.67,0,0,0-1.06,5H216.4a12.85,12.85,0,0,0-1.07-5M198.77,68.47c0,6,3.65,10.33,10.15,10.33,5.07,0,7.56-1.42,10.5-4.36l7,6.85c-4.72,4.72-9.26,7.3-17.63,7.3-11,0-21.46-5-21.46-23.77,0-15.14,8.19-23.68,20.21-23.68,12.91,0,20.21,9.43,20.21,22.17v5.16ZM150.09,88.06V79.25l20.57-27.16H151.25V41.67h34.19v8.82L164.61,77.64h20.83V88.06Zm-15.4-19.59h-9.17c-4.19,0-6.5,2-6.5,5.26s2.13,5.34,6.67,5.34c3.21,0,5.26-.27,7.31-2.23,1.24-1.16,1.69-3,1.69-5.88ZM135,88.06v-4c-3.11,3.12-6,4.46-11.39,4.46s-9.08-1.34-11.84-4.1A14.83,14.83,0,0,1,107.89,74c0-7.39,5.07-13.44,15.85-13.44h11V58.23c0-5.07-2.5-7.3-8.64-7.3-4.45,0-6.5,1.07-8.9,3.83l-7.39-7.21c4.54-5,9-6.41,16.74-6.41,13,0,19.76,5.52,19.76,16.38V88.06ZM92.48,24.69h11.57V88.06H92.48ZM69.24,51.55c-6.95,0-7.84,5.7-7.84,13.27s.89,13.36,7.84,13.36,7.83-5.79,7.83-13.36-.89-13.27-7.83-13.27M83.93,84.41a16.17,16.17,0,0,1-11.31,4.18c-4.72,0-8.19-1.24-11.22-4.63v21.11H49.83V41.67H61V46c3.21-3.56,6.68-4.89,11.58-4.89a16.17,16.17,0,0,1,11.31,4.18c4.63,4.63,4.72,12.56,4.72,19.5s-.09,15-4.72,19.59"/></g></svg>